<?xml version="1.0" encoding="UTF-8"?><svg xmlns="http://www.w3.org/2000/svg" viewBox="0 0 154.51 99.92"><defs><style>.d{fill:#fff;}</style></defs><g id="a"/><g id="b"><g id="c"><g><g><g><path class="d" d="M68.87,35.33c3.54,0,7.02-.02,10.38-.03,.9,0,1.8-.01,2.68-.02,.75,0,1.51,0,2.27,0,3.35,0,6.81,0,10.36-.02,2.1,0,4.16-.01,6.2-.02-.26-.36-.46-.74-.64-1.12-.09,.12-.37,.16-.31,.27-.09,.08-.88,.11-.75-.2,.01-.03-.49,.19-.5,.22,.09-.27,.13-.4,.18-.52,.05-.11,.13-.2,.29-.36,.17-.17,.15-.31,.18-.5-.15,.25-.38,.46-.58,.69-.2,.23-.38,.46-.42,.75-.1-.26-.16-.42-.25-.62,0,0-.03-.04-.03-.04-.03,.16-.07,.37-.18,.5-.04,.05-.08,.18-.09,.24-.19-.02-.35-.14-.45-.29-.1-.15-.15-.33-.14-.46-.07,.15-.13,.26-.15,.37-.03,.11-.04,.21-.03,.35,0,.03,.03,.09,.03,.11-.2-.11-.26-.21-.26-.33,0-.12,.05-.25,.08-.43,.03-.19,.15-.66-.33-.67,.13,.1,.16,.2,.13,.32-.02,.12-.1,.25-.18,.42-.07,.14-.12,.26-.14,.37-.03,.11-.05,.23-.07,.38-.02-.12-.04-.24-.06-.36-.02-.12-.07-.23-.16-.34,.11-.13,.19-.26,.24-.4-.07,.11-.19,.22-.32,.32-.05-.05-.11-.09-.18-.13,.07,.05,.1,.11,.13,.18-.09,.07-.18,.14-.25,.2-.07,.07-.2,.19-.32,.32-.07-.06-.12-.13-.11-.2-.01,.1,0,.22,0,.32-.04,.05-.07,.09-.1,.14-.07-.01-.14-.04-.18-.08-.01-.03-.02-.06-.02-.09,0-.04-.01-.09,0-.13,0-.04,0-.07,0-.12,.01-.07,.03-.15,.04-.22-.04,.09-.12,.18-.18,.26-.02-.04-.04-.08-.05-.11-.03-.07-.12-.2-.17-.26-.02-.03-.14-.12-.13-.14,.04,.12,.1,.24,.13,.36,.04,.12,.07,.24,.08,.36-.03,.05-.06,.1-.06,.13-.04-.12-.08-.24-.13-.36-.05-.12-.11-.24-.22-.33-.02-.02-.2-.17-.24-.17,.16,.09,.24,.22,.22,.37-.01,.08-.03,.17-.04,.26,0,0,0,.01,0,.02-.02-.07-.02-.13,0-.19,0,.07-.1,.16-.11,.23,0,.05,0,.1,0,.14-.05-.08-.11-.16-.17-.21-.07-.05-.14-.11-.21-.14,0,.04-.02,.09-.03,.14-.04-.05-.07-.1-.11-.13-.01,0-.06-.04-.06-.06,.01,.12,.04,.24,.05,.36h0c-.07,.06-.16,.11-.26,.14-.02-.15-.05-.3-.12-.42-.02-.03-.04-.07-.06-.1,.02-.11,.07-.21,.13-.3,.07-.1,.44-.19,.46-.3-.28,.04-.55,.14-.73,.3-.04-.1-.05-.19-.03-.3,.03-.03,.06-.07,.1-.11,.17-.17,.15-.31,.18-.5-.11,.17-.25,.33-.39,.49-.05,.04-.1,.09-.13,.14-.14,.16-.28,.31-.37,.49-.09-.07-.19-.13-.29-.17-.02-.05-.04-.09-.07-.14,0,0-.03-.04-.03-.04,0,.04-.02,.1-.03,.15-.05,0-.08,0-.11,0,.03,.02,.07,.04,.1,.06-.03,.1-.07,.21-.14,.29-.03,.03-.06,.11-.08,.17-.07-.04-.13-.07-.18-.09-.06-.02-.13-.1-.12-.13,0,.1,0,.07,.01,.13,0,.03,.02,.06,.04,.09-.24-.15-.38-.48-.34-.67-.08,.15-.13,.26-.16,.37-.03,.11-.04,.21-.03,.35,0,.03,.03,.09,.03,.11-.39-.22-.36-.06-.3-.41,.04-.23,.13-.37,.12-.6,0-.1-.27-.32-.28-.34,.08,.1,.11,.25,.09,.43-.01,.18-.08,.38-.2,.56-.18,.27-.14,.12-.19,.42-.05-.16-.11-.32-.18-.47-.05-.1-.13-.19-.2-.29,.05,.14,0,.32-.01,.45,0,.06-.02,.14-.03,.2,0,.05-.05,.07-.05,.11-.2-.05-.58-.22-.55-.41-.02,.11,0,.24,0,.34,0,.03,.04,.1,.04,.13-.1,0-.26-.26-.32-.33-.08-.1-.17-.28-.22-.39-.04-.07-.12-.2-.18-.26-.02-.03-.14-.12-.13-.14,.07,.18,.14,.36,.18,.54,.04,.18,.06,.36,.04,.56-.02,.15-.07,.14-.17,.04,0-.01,0-.03,0-.05,0,0-.02,0-.02,.01-.17-.17-.31-.43-.28-.66,0,.07-.02,.16-.03,.23-.01,.07-.06,.14-.07,.2-.01,.09-.03,.21-.05,.31h0c-.08-.13-.18-.27-.25-.4,.07-.2,.25-.39,.42-.58,.16-.19,.32-.38,.36-.59-.05,.26-.48,.49-.67,.68-.06,.06-.16,.15-.25,.25-.02-.03-.05-.06-.07-.08-.01-.01-.06-.04-.06-.06,0,.08,.03,.16,.04,.25-.11,.12-.2,.25-.21,.34,0,0-.01-.02-.02-.03-.02-.16-.05-.1-.13-.24h0c.07-.05,.18-.09,.26-.15-.07-.01-.17,.02-.27,.07,0-.05,.03-.11,.04-.16-.03,.04-.06,.09-.09,.14-.11-.2-.23-.41-.31-.63-.08-.22-.12-.44-.09-.66-.02,.17-.06,.33-.07,.49-.01,.16,0,.33,.04,.49v.02c-.06-.04-.13-.08-.18-.12,.11,.15,.13,.24,.1,.35-.04-.06-.08-.12-.14-.18-.02-.02-.19-.17-.24-.17,.16,.09,.24,.22,.22,.37,0,.07-.02,.16-.03,.25-.09-.15-.19-.3-.28-.43-.09-.13-.18-.24-.26-.3,.02-.02,.04-.04,.05-.06-.04,0-.08,.01-.11,.02-.02,0-.04-.02-.05-.02v.03c-.24,.05-.46,.16-.61,.3-.08,.08-.19,.18-.24,.28-.01,.03-.11,.1-.11,.14,.09-.26,.13-.4,.18-.51,.05-.11,.13-.19,.29-.35,.17-.17,.15-.31,.18-.49-.15,.24-.38,.46-.58,.68-.12,.13-.23,.27-.31,.42-.08,.04-.14,.09-.18,.13-.02-.06-.05-.12-.07-.18,.06-.07,.12-.14,.18-.21,.12-.15,.22-.3,.25-.46-.03,.19-.28,.37-.49,.53-.02-.04-.03-.08-.05-.12,0-.01-.03-.04-.03-.04-.02,.08-.04,.19-.07,.28l-.03,.03h0s0-.08,0-.12c-.02-.05-.03-.11-.04-.18,0,0,.01-.02,.02-.02-.01,0-.02,0-.03,0-.1-.57-.06-1.6-.02-1.98,.03-.37-.11-1.23,.11-1.5,0,0,.07,.12,.07,.15,0,.01,.38,1.09,.45,1.18,.09,.12,.2,.44,.29,.52-.06-.82,.09-1.15,.03-1.94,0-.12,.1-.52,.09-.64,0-.12,.03-.27-.05-.38-.23-.33-.18-1.13-.29-1.22-.07-.06-.23-.38-.29-.5-.06-.8-.02-1.74-.14-2.57-.12-.83-.39-1.56-1.05-1.97-.39-.24-1.03-.31-1.47-.44-.32-.04-.58-.16-.95-.15-.52,.01-.88,.28-1.39,.29-1.82,.04-3.67,.55-5.42,.35-.79-.09-1.37-.12-2.11,.16-.39,.15-.99,.48-1.32,.74-.44,.34-1.32,1.82-1.49,2.27-.15,.41-1.18,1.77-1.7,2.01-.08,.04-.24,.27-.43,.43-.02-.04-.04-.08-.07-.11-.34-.39-.74,.71-.65,.93,0,0,0,.02,.01,.04-.03,.09-.07,.19-.12,.32-.27,.5-.22,.94-.11,1.42,.1,.43,.03,1.27-.19,1.78,0,.15-.04,.32,.12,.37,.1,.03,.28,.23,.44,.21,.12-.01,.26-.11,.36-.08,.07,.02,.6-.02,.67-.05,.34,.1,.73-.69,.79-.91,.09-.32,1.05-.96,1.1-1.27,.45,.13,1.45,.09,1.88-.6,.01,.16-.05,.18-.05,.36,0,.22-.05,.2,.01,.38,.06,.18,.02,.42,.02,.6,0,.5-.39,1.78-.58,2.31-.03-.08-.05-.16-.11-.24,.11-.13,.19-.26,.24-.4-.07,.11-.19,.22-.32,.32-.05-.05-.11-.09-.18-.13,.06,.05,.1,.11,.13,.18-.09,.07-.18,.14-.25,.2-.07,.07-.2,.19-.32,.32-.07-.06-.12-.13-.11-.2-.01,.1,0,.22,0,.32-.04,.05-.07,.09-.1,.14-.07-.01-.14-.04-.18-.08-.01-.03-.02-.06-.02-.09,0-.04-.01-.09,0-.13,0-.04,0-.07,0-.12,.01-.07,.04-.15,.04-.22-.04,.09-.12,.18-.18,.26-.02-.04-.04-.08-.05-.11-.03-.07-.12-.2-.17-.26-.02-.03-.14-.12-.13-.15,.05,.12,.1,.24,.13,.36,.04,.12,.07,.24,.08,.36-.03,.05-.05,.1-.06,.13-.04-.12-.08-.24-.13-.36-.05-.12-.11-.24-.21-.33-.02-.02-.2-.17-.24-.17,.16,.09,.25,.22,.22,.37-.01,.08-.03,.18-.04,.26v.02c-.02-.07-.02-.13-.01-.19,0,.07-.1,.16-.11,.23,0,.05,0,.09,0,.14-.05-.08-.11-.16-.17-.21-.06-.05-.14-.11-.21-.14,0,.04-.02,.09-.03,.14-.04-.05-.07-.1-.11-.13-.01,0-.06-.04-.06-.06,.01,.12-.12,.34-.1,.46l-.22-.45c-.07,.06-.02,.43-.35,.41-.02-.15,.03-.2,.03-.2,0,0-.47,.22-.48,.28-.07-.04,0-.19,0-.19,0,0-.47,.26-.46,.23,0,.1,0-.24,0-.24,0,0-.36,.24-.34,.27-.24-.15-.47-.55-.47-.55,0,0,.02,.36-.17,.34-.19-.03-.46-.54-.46-.54l-.12,.18c-.18,.27-.14,.12-.18,.42-.05-.16-.11-.32-.18-.47-.05-.1-.13-.19-.2-.29,.05,.14,0,.32-.01,.45,0,.06-.02,.14-.03,.2,0,.05-.05,.07-.05,.11-.2-.05-.58-.22-.55-.41-.02,.11,0,.24,0,.34,0,.03,.05,.1,.04,.13-.1,0-.26-.26-.32-.33-.08-.1-.16-.28-.22-.39-.04-.07-.12-.2-.18-.26-.02-.03-.14-.12-.13-.14,.07,.18,.14,.36,.18,.54,.04,.18,.06,.36,.04,.56-.02,.16-.07,.14-.18,.04-.18-.17-.34-.45-.3-.68,0,.07-.02,.16-.03,.23,0,.07-.06,.14-.07,.2-.01,.09-.03,.22-.05,.32-.07-.14-.18-.27-.26-.4,.07-.2,.25-.39,.42-.58,.16-.19,.32-.38,.36-.59-.05,.26-.48,.49-.67,.68-.06,.06-.16,.15-.26,.25-.02-.03-.05-.06-.07-.08-.01-.01-.06-.04-.06-.06,0,.08,.03,.16,.04,.25-.11,.12-.2,.25-.21,.34,0,0-.01-.02-.02-.03-.02-.16-.05-.1-.13-.24,0,0-.01-.02-.02-.03h0c0-.07,.03-.15,.05-.22-.03,.04-.06,.09-.09,.14-.11-.2-.23-.41-.31-.63-.08-.22-.12-.44-.09-.66-.02,.17-.06,.33-.07,.49-.01,.16,0,.33,.04,.49,.03,.13,.06,.25,.08,.37,.02,.12,.03,.23,.03,.35-.08-.22-.15-.47-.33-.64-.02-.02-.19-.17-.24-.17,.17,.09,.24,.22,.22,.37,0,.07-.02,.16-.03,.24-.09-.15-.19-.3-.28-.43-.09-.13-.18-.24-.26-.3,.02-.02,.04-.04,.05-.06-.04,0-.08,.01-.11,.02-.02,0-.04-.01-.05-.02v.03c-.24,.05-.46,.16-.61,.3-.08,.08-.19,.18-.24,.28-.02,.03-.11,.1-.11,.14,.09-.26,.13-.4,.18-.51,.05-.11,.13-.19,.29-.36,.17-.17,.15-.31,.18-.49-.15,.24-.38,.46-.58,.68-.2,.22-.38,.45-.42,.73-.1-.26-.16-.42-.25-.62,0-.01-.03-.04-.03-.04-.03,.16-.07,.36-.18,.49-.04,.05-.08,.17-.1,.24-.19-.02-.34-.14-.44-.29-.1-.15-.16-.33-.14-.45-.07,.15-.12,.26-.15,.36-.03,.1-.04,.21-.03,.35,0,.03,.03,.09,.03,.11-.2-.11-.26-.21-.26-.32,0-.11,.05-.25,.08-.42,.03-.19,.15-.65-.33-.66,.13,.1,.16,.2,.13,.31-.02,.12-.1,.25-.18,.41-.07,.14-.12,.25-.15,.36-.03,.11-.05,.22-.07,.37-.02-.16-.03-.32-.09-.47-.06-.15-.16-.3-.38-.42,.19,.15,.17,.4,.14,.58,0,.06-.08,.14-.09,.2,0,0,0,.01,0,.01-.03,.02-.07,.05-.1,.08-.05-.01-.1-.03-.16-.06,0-.01,0-.02,.01-.04,.09-.25-.16-.38-.28-.48,.11,.18,.12,.28,.07,.4-.09-.07-.15-.15-.14-.23-.01,.11,0,.23,0,.34,0,.02,.02,.06,.03,.09,0,0,0,.01-.01,.02,0,0,0,0,0,.01-.06,0-.14-.02-.2-.04v-.03s0,.01-.02,.02c-.04-.01-.06-.03-.08-.05-.08-.1-.17-.28-.22-.39-.03-.07-.13-.19-.18-.26-.02-.03-.13-.12-.13-.14,.06,.16,.12,.31,.16,.46,.04,.15,.07,.3,.07,.47-.02-.03-.04-.06-.04-.09,.02,.1-.04,.22-.1,.32-.02-.01-.03-.03-.05-.05-.05-.05-.1-.11-.15-.17,.02-.13,.07-.26,.12-.39,0,.02-.07,.07-.08,.09-.03,.04-.09,.12-.11,.16h0c-.07-.11-.11-.24-.08-.36-.01,.07-.1,.15-.11,.22-.01,.07,.02,.13,0,.2-.01,.07-.02,.15-.03,.23-.02,0-.04,0-.06,.01l-.04-.06h0c0-.08,.01-.16,0-.23,0,.04-.02,.09-.07,.13-.06-.09-.11-.17-.15-.25-.04-.07-.11-.17-.18-.23-.01,0-.06-.04-.06-.06,0,.05,.02,.11,.03,.16-.19,.14-.19,.32-.21,.49-.02-.2-.06-.41-.14-.57-.05-.08-.09-.16-.12-.23,.01-.04,.04-.07,.08-.11-.05,0-.09,.01-.12,.03-.05-.11-.08-.21-.07-.31,0-.1,.06-.22,.15-.36-.1,.08-.25,.17-.35,.28-.1,.12-.16,.26-.09,.46,.06,.17,.11,.29,.12,.41-.02-.04-.04-.09-.07-.14,0,.07,0,.16-.05,.24-.03-.09-.07-.18-.13-.26-.15-.21-.46-.39-.67-.39v.02c.23,.16,.53,.25,.47,.49-.02,.08-.03,.15-.04,.22h0c-.07-.08-.1-.21-.12-.31,0,0-.01,.02-.02,.02-.04,.09-.07,.17-.11,.26-.04-.02-.08-.05-.12-.07-.07-.13-.17-.24-.28-.35h0s-.04,.05-.06,.08c.04,.04,.06,.08,.08,.12-.05-.03-.09-.05-.13-.06-.05,.06-.09,.11-.14,.17,.04,.08,.06,.17,.04,.26-.08,0-.17-.02-.26-.04-.19,.2-.39,.39-.61,.57,2.49,0,5.07,.02,7.72,.02,3.35,0,6.82,0,10.36-.02Zm26.96-1.23c0,.09,0,.19-.01,.26,0,.06-.08,.14-.09,.2,0,.05-.05,.07-.05,.11-.06-.01-.14-.04-.22-.07,.08-.18,.22-.34,.37-.5Zm-10.59-.17c.04-.06,.22-.13,.34-.19,.11,.19,.26,.39,.25,.6v.04s-.1-.07-.14-.09c-.01,.08-.04,.18-.09,.26h-.02s-.06-.09-.07-.13c0,.02,0,.04,0,.07-.08-.06-.14-.1-.21-.13-.02,0-.04-.02-.06-.04,.02-.06,.05-.12,.08-.18,0,.01-.07,.08-.09,.09,0,.01-.02,.02-.04,.04,0-.02-.02-.03-.01-.04,0,.03,0,.05,0,.06-.03,.04-.06,.08-.08,.11h0s0-.04,0-.06c0-.15,.06-.29,.14-.41Zm-14.06,.71s.02-.03,.03-.04c0,.03,.02,.07,.02,.08-.03-.01-.03-.03-.05-.04Zm4.91,.25s-.01,.02-.02,.03c0,0,0-.02,0-.03-.01-.09-.04-.25-.11-.38,.02-.04,.06-.08,.08-.12,.07,.19,.1,.3,.06,.5Zm5.71-.62s.02,.03,.03,.04c-.07,.07-.19,.18-.26,.28-.03,0-.05-.02-.08-.03h0s0-.02,.01-.04c.07-.18-.06-.3-.17-.39,.03-.07,.06-.13,.1-.19,.04-.06,.18-.11,.29-.17,.12,.11,.14,.28,.13,.42-.11-.05-.25-.08-.38-.1,.01,.06,.29,.12,.33,.18Zm1.86-8.68c.04,.63,.13,1.26,.17,1.88,.04,.54-.24,1.25-.21,1.74-.28-.56-.4-1.14-.39-1.29,.01-.38,.23-2.05,.43-2.33Zm-2.99,8.06c.13-.27,.88-2.01,.96-2.07,.26-.21,.35-1.02,.66-1.58,.01,.22,.35,.76,.44,1.01,.07,.21,.23,2.36,.1,2.44-.03,.09,0,.34,0,.45,0,.09-.04,.21-.08,.3,0-.01,0-.02,0-.03,0,0-.02,.02-.02,.02,0,.02-.02,.05-.03,.07h0c0-.12,.05-.25,.08-.42,.03-.19,.15-.65-.33-.66,.13,.1,.16,.2,.13,.31-.02,.12-.1,.25-.18,.41v.02s-.07-.04-.1-.06c0,0,0-.01,0-.02,0,0,0,.01,0,.02-.04-.03-.07-.05-.09-.05,.03,.02,.06,.04,.08,.06-.02,.06-.07,.13-.14,.18-.12-.11-.24-.22-.33-.34,.04-.03,.07-.05,.08-.08-.31,.04-.59,.16-.78,.34-.06,.06-.13,.13-.18,.2-.02-.02-.05-.04-.07-.06,.09-.27,.13-.33,.38-.58,.17-.17,.15-.31,.18-.5-.15,.25-.38,.46-.58,.69-.1,.11-.19,.22-.26,.34l-.02-.03s.05-.04,.06-.06c-.02,0-.04,0-.05,.01,.02-.09,.05-.2,.12-.34Zm-6.73-2.43c.01-.18,.11-.47,.13-.74,.02-.45,.08-.57,.38-.66,.44-.13,3.14,.15,3.17,.25,.06,.19,.19,.23,.27,.2,.07,0,.06-.22,.16-.29,.17-.11,.46-.29,.59-.34,.2-.08,.25-.09,.47-.23,.13-.09,.46,.11,.6,.1,.12,0,.35,.04,.47,.2,.21,.27,.27,.3,.28,.49,.04,.82,.15,2.06-.4,2.71-.22,.26-.34,.85-.62,1.02-.06,.04-.09,.09-.12,.16-.04-.1-.06-.2-.05-.28-.1,.23-.17,.35-.19,.52,0-.02-.02-.04-.03-.05-.05-.09-.09-.16-.12-.23,.01-.04,.04-.07,.08-.11-.05,0-.09,.01-.12,.03-.02-.04-.04-.08-.05-.13,.02-.09,.07-.19,.1-.28,.04-.12,.08-.24,.04-.35-.02-.08-.27-.4-.27-.44,.09,.17,.12,.35,.11,.51,0,.05-.01,.1-.02,.14-.06,.05-.13,.1-.18,.16-.04,.04-.07,.09-.09,.14-.02,0-.03,0-.05,0,.01,.01,.03,.02,.04,.03-.02,.07-.02,.15,0,.25-.05,.08-.08,.15-.1,.21,0,.02-.01,.04-.02,.06-.1-.13-.26-.25-.41-.32-.04-.05-.08-.1-.13-.15,.03,.04,.06,.08,.07,.12-.09-.04-.17-.05-.24-.04,.09,.06,.18,.11,.27,.16,.01,.12,0,.24,0,.34,0,.06-.02,.13-.03,.2-.04-.02-.07-.04-.11-.06-.07-.13-.17-.24-.28-.35-.11-.11-.22-.22-.29-.35,.02,.11,0,.2,.11,.31,.11,.11,.16,.16,.2,.24-.06-.03-.11-.06-.15-.07-.05-.02-.12-.1-.12-.13,0,.09,0,.07,.02,.12v.02h-.01s-.04-.06-.06-.08c-.01-.02-.08-.07-.08-.09,.02,.04,.03,.09,.05,.13-.08-.03-.17-.06-.26-.07,0,.06,.25,.12,.29,.19h0c.03,.12,.06,.23,.06,.35-.07,0-.13-.01-.2-.03-.02-.01-.03-.02-.05-.04-.01-.02-.03-.04-.04-.06-.02-.06-.03-.13-.02-.19,0,.02-.02,.05-.04,.08-.04-.08-.09-.17-.11-.23-.03-.07-.12-.19-.18-.26-.02-.03-.14-.12-.14-.14,.06,.14,.11,.27,.16,.41,0,.02,.01,.04,.02,.06-.04,.03-.08,.06-.08,.06,0,0-.02,.02-.02,.03-.01-.02-.02-.03-.02-.04v.02s-.02-.01-.02-.01c0,.01,0,.02,0,.04,0,.02-.01,.04-.02,.06-.05,.08-.08,.17-.11,.25-.01-.1-.03-.2-.08-.29-.06-.12-.11-.2-.14-.28,.15-.17,.28-.34,.36-.53-.08,.12-.23,.24-.36,.34,.01-.05,.19-.2,.08-.18-.15,.03-.28,.18-.3,.35,0,0-.01,.01-.02,.02-.04,.04-.1,.1-.16,.16-.11-.09-.2-.16-.33-.14,.09,.03,.21,.12,.27,.19-.01,.01-.02,.02-.04,.04-.03-.02-.19-.1-.17-.15-.01,.01-.02,.03-.03,.04-.11-.08-.22-.18-.24-.27,.03,.17,.19,.31,.32,.46l.02,.02s-.05,.06-.08,.09c-.09-.05-.17-.1-.23-.13-.02-.04-.03-.09-.05-.13,0-.01-.01-.02-.02-.03,.01-.07,.03-.15,.04-.22-.02,.05-.06,.09-.09,.14-.11-.2-.23-.41-.31-.63-.08-.22-.12-.44-.09-.66-.03,.17-.06,.33-.07,.49-.01,.16,0,.33,.04,.49,.03,.13,.07,.25,.08,.37s.03,.24,.03,.35c-.04-.12-.27-.79-.57-.81,.46,.41-.28,.41-.19,.57-.03,.03-.15,.05-.28,.05,.09-.35,.35-.63,.18-1-.25-.55-.1-1.68-.07-2.29Zm-2.03,.63c.09-.17,.11-.34,.19-.54,.24-.6-.27-.87,.39-1.09,.17-.06,.12-.08,.28-.14-.05,.21,.11,.83,.23,1.08,.1,.21,.12,.4,.1,.7,.1,.21,0,1.23-.13,1.88l-.03,.03c-.2,.23-.38,.46-.42,.75-.1-.27-.16-.42-.25-.62,0,0-.03-.04-.03-.04-.03,.16-.07,.37-.18,.5-.04,.05-.08,.18-.09,.24-.19-.02-.35-.14-.45-.29-.05-.07-.08-.15-.1-.22,0-.62,.26-1.81,.49-2.24Zm-1.77,2.31c0,.09,0,.19-.01,.27,0,.06-.08,.14-.09,.2,0,.05-.04,.07-.05,.11-.06-.01-.14-.04-.22-.07,.08-.18,.22-.34,.37-.5Zm-10.59-.17c.04-.06,.22-.13,.34-.19,.11,.19,.26,.39,.25,.6v.04s-.1-.07-.14-.09c-.01,.08-.03,.18-.09,.26-.12-.08-.2-.15-.29-.18-.06-.02-.13-.1-.12-.13,0,.1,0,.07,.02,.12,.03,.11,.13,.22,.17,.32,0,0,0,.02,.01,.03-.04,.02-.08,.03-.13,.04-.11-.11-.16-.26-.16-.4,0-.15,.06-.29,.14-.41Z"/><g><path class="d" d="M36.83,17.97c-.84-1.03-1.76-1.79-2.97-.77-1.43,1.2,.19,3.13,1.97,5.26,2.88,3.44,3.73,3.76,5.03,2.67,.38-.32,.71-.75,.96-1.17l-2.04-2.43-1.25,1.05-1.41-1.69,3.54-2.97,4.67,5.57c-.52,.64-1.88,2.2-2.8,2.97-3.86,3.24-5.64,2.01-9.13-2.15-2.32-2.77-4.54-5.7-.79-8.84,2.25-1.89,4.71-1.8,6.5,.61l-2.28,1.91Z"/><path class="d" d="M49.54,21.31l-2.64,1.43-6.81-12.6,4.87-2.63c1.8-.97,3.57-.44,4.73,1.71,.87,1.61,.89,3.15-.67,4.36l.02,.03c.61-.24,2.4-1.03,3.63,1.24,.43,.8,1.77,3.15,2.3,3.54l-2.58,1.4c-.76-.58-1.16-1.47-1.6-2.29-.81-1.5-1.36-2.85-3.39-1.76l-.68,.37,2.82,5.22Zm-3.87-7.16l1.17-.63c1.05-.57,.78-1.77,.34-2.58-.65-1.2-1.4-1.39-2.24-.93l-1.17,.63,1.9,3.51Z"/><path class="d" d="M54.93,18.27l-.32-14.86,3.78-1.13,7.84,12.6-3.02,.91-1.67-2.81-3.91,1.17,.13,3.27-2.83,.85Zm2.21-12.74h-.04l.47,6.33,2.74-.82-3.17-5.51Z"/><path class="d" d="M70.72,14.83c-3.7,.32-4.58-1.79-4.64-4.27l2.98-.26c.12,1.36,.28,2.5,1.92,2.36,1.01-.09,1.44-.78,1.36-1.75-.22-2.57-6.25-2.2-6.62-6.45-.2-2.23,.72-4.11,4.35-4.42,2.91-.26,4.46,.92,4.53,3.92l-2.91,.26c-.09-1.07-.37-2.14-1.57-2.03-.97,.09-1.49,.67-1.41,1.66,.24,2.71,6.22,1.94,6.62,6.43,.32,3.7-2.35,4.37-4.62,4.57Z"/><path class="d" d="M80.94,14.84c-3.69-.39-4.15-2.63-3.74-5.08l2.98,.31c-.14,1.36-.2,2.51,1.43,2.68,1.01,.11,1.57-.49,1.67-1.46,.27-2.56-5.71-3.35-5.27-7.59,.23-2.23,1.49-3.89,5.12-3.51,2.9,.3,4.2,1.76,3.69,4.71l-2.9-.3c.11-1.07,.05-2.17-1.16-2.3-.97-.1-1.59,.37-1.7,1.36-.28,2.7,5.74,3.09,5.27,7.57-.39,3.69-3.14,3.84-5.4,3.6Z"/><path class="d" d="M90.16,16.24l4.72-13.53,7.03,2.45-.73,2.08-4.2-1.47-1.21,3.47,4.01,1.4-.73,2.08-4.01-1.4-2.06,5.9-2.83-.99Z"/><path class="d" d="M97.22,18.75l6.73-12.65,6.91,3.67-1.03,1.95-4.26-2.26-1.66,3.12,3.93,2.09-1.03,1.95-3.93-2.09-1.97,3.7,4.4,2.34-1.03,1.95-7.05-3.74Z"/><path class="d" d="M114.37,12.04l3.88,3.15c3.05,2.48,1.96,4.97-.85,8.43-1.39,1.71-4.31,5.83-8.28,2.6l-3.79-3.08,9.03-11.11Zm-5.32,11.29l1.12,.91c1.42,1.15,2.56,.31,4.82-2.47,1.66-2.05,3.13-3.85,1.51-5.16l-1.2-.98-6.26,7.69Z"/></g></g><g><path class="d" d="M6.74,70.9H.38v-30.37H12.12c4.33,0,7.11,2.78,7.11,7.95,0,3.87-1.51,6.77-5.64,7.44v.08c1.39,.17,5.51,.5,5.51,5.97,0,1.93,.13,7.66,.71,8.92h-6.23c-.84-1.85-.67-3.91-.67-5.89,0-3.62,.34-6.69-4.54-6.69h-1.64v12.58Zm0-17.25h2.82c2.52,0,3.24-2.52,3.24-4.46,0-2.9-1.22-4-3.24-4h-2.82v8.45Z"/><path class="d" d="M23.9,70.9v-30.37h16.57v4.67h-10.22v7.49h9.42v4.67h-9.42v8.88h10.56v4.67H23.9Z"/><path class="d" d="M53.18,71.41c-7.87,0-9.34-4.63-9-9.88h6.35c0,2.9,.13,5.34,3.62,5.34,2.15,0,3.2-1.39,3.2-3.45,0-5.47-12.79-5.8-12.79-14.85,0-4.75,2.27-8.54,10.01-8.54,6.18,0,9.25,2.78,8.83,9.13h-6.18c0-2.27-.38-4.58-2.94-4.58-2.06,0-3.28,1.14-3.28,3.24,0,5.76,12.79,5.26,12.79,14.81,0,7.87-5.76,8.79-10.6,8.79Z"/><path class="d" d="M68.33,70.9v-30.37h16.57v4.67h-10.22v7.49h9.42v4.67h-9.42v8.88h10.56v4.67h-16.91Z"/><path class="d" d="M95.59,70.9h-6.35v-30.37h11.74c4.33,0,7.11,2.78,7.11,7.95,0,3.87-1.51,6.77-5.64,7.44v.08c1.39,.17,5.51,.5,5.51,5.97,0,1.93,.13,7.66,.71,8.92h-6.23c-.84-1.85-.67-3.91-.67-5.89,0-3.62,.34-6.69-4.54-6.69h-1.64v12.58Zm0-17.25h2.82c2.52,0,3.24-2.52,3.24-4.46,0-2.9-1.22-4-3.24-4h-2.82v8.45Z"/><path class="d" d="M110.31,40.53h6.6l4.71,22.08h.08l5.3-22.08h6.27l-8.03,30.37h-7.44l-7.49-30.37Z"/><path class="d" d="M136.14,70.9v-30.37h16.57v4.67h-10.22v7.49h9.42v4.67h-9.42v8.88h10.56v4.67h-16.91Z"/></g></g><g><g><path class="d" d="M8.39,99.54H0v-16.99H8.39v16.99Zm-6.99-15.57v14.15H6.99v-14.15H1.4Zm11.41,5.4h2.58v1.42h-2.58v9.13h-1.4v-17.66h1.4v7.11Z"/><path class="d" d="M16.96,87.47c0-3.36,1.35-5.13,4.2-5.13s4.2,1.77,4.2,5.13v7.13c0,3.38-1.21,5.11-4.2,5.11s-4.2-1.71-4.2-5.11v-7.13Zm1.42,7.15c0,2.81,1,3.69,2.78,3.67s2.78-.86,2.78-3.67v-7.15c0-2.79-.97-3.71-2.78-3.71s-2.78,.92-2.78,3.71v7.15Zm12.09-12.36h-1.4v17.66h1.4v-17.66Z"/><path class="d" d="M33.74,90.75v-8.21h8.37v8.21h-8.37Zm13.51,1.88v4.27h-11.33v1.63h11.67v1.38h-13.09v-4.4h11.35v-1.5h-11.41v-1.38h12.82Zm-6.54-3.31v-5.36h-5.57v5.36h5.57Zm6.54,2.29h-1.4v-9.36h1.4v9.36Z"/></g><g><path class="d" d="M67.92,98.11v1.42h-15.58v-1.42h15.58Zm-3.68-14.01v4.31c-.02,.83-.09,1.92-.22,2.71h2.92v1.42h-13.65v-1.42h2.92c-.16-.77-.19-1.85-.21-2.69v-4.32h-2.42v-1.42h13.07v1.42h-2.42Zm-1.4,0h-5.43v4.44c0,.73,.03,1.79,.19,2.58h5.05c.14-.83,.19-1.85,.19-2.58v-4.44Z"/><path class="d" d="M76.16,98.11v-4.13h1.42v4.13h7.12v1.42h-15.58v-1.42h7.04Zm7.28-15.43v5.82h-11.66v3.19h11.98v1.42h-13.4v-6h11.66v-3.02h-11.69v-1.42h13.11Z"/><path class="d" d="M92.66,92.25h-6v-9.71h8.54v1.42h-7.14v2.63h6.8v1.4h-6.8v2.83h4.6c1.31,0,2.85-.12,3.74-.6v1.42c-.85,.46-2.39,.6-3.74,.6Zm-3.8,1.86h-1.44v5.61h13.09v-1.42h-11.66v-4.19Zm11.31-11.86h-1.4v12.88h1.4v-12.88Z"/></g><g><path class="d" d="M115.85,98.92c-.74,.4-2.27,.6-3.68,.62h-6.05v-9.28h6.74v-6.29h-6.8v-1.42h8.2v9.11h-6.74v6.46h4.7c1.42,0,2.7-.13,3.63-.62v1.42Zm3.77-16.66h-1.4v17.66h1.4v-17.66Z"/><path class="d" d="M122.8,82.55h8.79v1.42h-3.68v5.9c0,4.77,1.99,7.03,3.94,8.07v1.61c-2.16-.94-3.96-3-4.64-5.27-.64,2.27-2.61,4.48-4.72,5.38v-1.54c1.97-1.1,4.01-3.46,4.01-8.23v-5.94h-3.7v-1.42Zm8.16,8.21h4.05v9.17h1.4v-17.66h-1.4v7.05h-4.05v1.44Z"/><path class="d" d="M154.51,98.11v1.42h-15.58v-1.42h15.58Zm-14.34-5.38v-10.05h1.4v3.56h10.27v-3.56h1.4v10.05h-13.07Zm1.4-5.07v3.65h10.27v-3.65h-10.27Z"/></g></g></g></g></g></svg>